<?xml version="1.0" standalone="no"?>
<!DOCTYPE svg PUBLIC "-//W3C//DTD SVG 1.1//EN" "http://www.w3.org/Graphics/SVG/1.1/DTD/svg11.dtd" >
<svg xmlns="http://www.w3.org/2000/svg">
<metadata></metadata>
<defs>
<font id="bahamaslightregular" horiz-adv-x="1140" >
<font-face units-per-em="2048" ascent="1638" descent="-410" />
<missing-glyph horiz-adv-x="567" />
<glyph horiz-adv-x="2048" />
<glyph horiz-adv-x="2048" />
<glyph unicode="&#xd;" horiz-adv-x="0" />
<glyph unicode=" "  horiz-adv-x="567" />
<glyph unicode="&#x09;" horiz-adv-x="567" />
<glyph unicode="&#xa0;" horiz-adv-x="567" />
<glyph unicode="!" horiz-adv-x="456" d="M140 68q8 76 79 76q74 0 74 -76q0 -32 -22 -56t-58 -24q-32 0 -51 24q-18 24 -22 56zM180 284v1176h76v-1176h-76z" />
<glyph unicode="&#x22;" horiz-adv-x="680" d="M205 973v463h75v-463h-75zM408 973v463h76v-463h-76z" />
<glyph unicode="#" d="M64 559h256l44 334h-233l-6 80h252l63 463h88l-67 -463h307l64 463h84l-64 -463h215l13 -80h-240l-44 -334h216l8 -84h-236l-63 -475h-88l67 475h-309l-63 -471h-88l67 471h-235zM404 559h308l44 334h-304z" />
<glyph unicode="$" d="M219 209v71h357v535q-66 23 -123.5 43.5t-108 51t-86.5 84.5t-39 138q0 104 40.5 172t120.5 100t200 32v137h76v-137h317v-72h-317v-488q157 -40 242 -95t113.5 -113t32.5 -128q0 -178 -113 -254.5t-275 -76.5v-209h-80v209h-357zM293 1149q2 -2 3 -4.5t1 -4.5 q2 -88 80.5 -153.5t202.5 -87.5v465q-146 0 -215 -52t-72 -163zM656 280q156 0 234 64t78 168q0 65 -35 122.5t-107 99.5q-70 42 -170 62v-516z" />
<glyph unicode="%" horiz-adv-x="1820" d="M144 1164q2 80 37 148.5t104 110t163 41.5q99 0 168.5 -43t104.5 -114t35 -154q0 -78 -32 -146t-94 -110.5t-151 -44.5q-108 0 -182.5 44t-112.5 115t-40 153zM223 1153q2 -59 31.5 -111t83 -83t127.5 -31q96 4 151.5 72t55.5 159q0 94 -54 159.5t-153 65.5 q-112 0 -175 -67t-67 -164zM368 -24l949 1484h79l-952 -1484h-76zM1004 280q3 130 85.5 219t231.5 89q142 -3 216.5 -88.5t74.5 -206.5q0 -80 -34.5 -152.5t-99 -117.5t-151.5 -47q-102 0 -174.5 43t-109.5 112t-39 149zM1088 284q3 -96 67.5 -164.5t175.5 -68.5 q58 2 104 39t71.5 94.5t25.5 114.5q0 91 -54.5 150t-164.5 59q-70 0 -120.5 -31t-76.5 -81q-26 -52 -28 -112z" />
<glyph unicode="&#x26;" horiz-adv-x="1368" d="M56 549q4 137 73 262t219 221q-64 82 -89 126t-27 81q34 197 208 197h588v-72h-563q-147 0 -153 -104q7 -78 69 -144l747 -844q24 29 48 106.5t24 170.5q0 226 -180 383l51 51q205 -181 205 -443q0 -106 -32 -199.5t-64 -131.5l164 -209h-101l-115 152 q-196 -176 -460 -176q-118 0 -225 36t-171 88q-86 58 -150 182.5t-66 266.5zM135 549q4 -131 69.5 -248t172.5 -180q115 -63 291 -70q274 8 403 158l-667 768q-134 -74 -199.5 -185.5t-69.5 -242.5z" />
<glyph unicode="'" horiz-adv-x="456" d="M156 1120l59 316h84l-67 -316h-76z" />
<glyph unicode="(" horiz-adv-x="796" d="M240 500q0 144 29 281.5t85.5 263t141 231.5t188.5 184l41 -45q-146 -118 -239 -267t-132.5 -301.5t-39.5 -295.5q0 -8 1 -23.5t1 -23.5q10 -193 69 -348.5t149 -271.5t206 -216l-40 -49q-132 92 -234 230.5t-161 306.5t-65 344z" />
<glyph unicode=")" horiz-adv-x="796" d="M60 -336q102 80 183 185t134 221.5t80 233t27 228.5q-2 301 -122 515.5t-286 361.5l40 47q121 -94 221 -226t162 -308t64 -386q-2 -172 -55 -344t-157 -322q-105 -150 -251 -255z" />
<glyph unicode="*" horiz-adv-x="1024" d="M172 912l284 168l-280 167l33 49l275 -164v304h61v-300l270 160l41 -49l-284 -167l284 -168l-41 -52l-270 164v-324h-61v324l-271 -164z" />
<glyph unicode="+" horiz-adv-x="1229" d="M131 448v80h445v445h84v-445h440v-80h-440v-448h-84v448h-445z" />
<glyph unicode="," horiz-adv-x="567" d="M160 -164l84 312h104l-104 -316z" />
<glyph unicode="-" horiz-adv-x="680" d="M148 448v80h392v-80h-392z" />
<glyph unicode="." horiz-adv-x="567" d="M196 68q8 76 76 76q38 0 59 -22t21 -58q0 -31 -21 -53.5t-55 -22.5t-55 24t-25 56z" />
<glyph unicode="/" horiz-adv-x="567" d="M4 -24l484 1484h84l-484 -1484h-84z" />
<glyph unicode="0" d="M100 436v568q0 97 49 204.5t154 181.5t265 74q150 0 258 -64t163 -172t55 -232v-560q0 -117 -46 -220.5t-153.5 -170.5t-281.5 -69q-176 0 -279.5 76t-143.5 181t-40 203zM192 436q0 -158 89 -267t282 -109q164 0 251.5 67t112.5 151t25 158v560q0 102 -34 176t-90 121 t-124 69t-136 22q-92 -2 -178 -44t-142 -130t-56 -214v-560z" />
<glyph unicode="1" d="M299 1364l21 72h296v-1436h-76l5 1364h-246z" />
<glyph unicode="2" d="M100 1032q6 114 48 197.5t106 133t138 72.5q72 23 144 25q154 0 263 -63t163 -165.5t54 -215.5q0 -132 -64 -220q-66 -110 -181 -215t-232 -191.5t-227 -169.5q-110 -84 -112 -112q6 -24 76 -24h756v-84h-840q-80 5 -88 92q6 58 36 84q84 82 207 177.5t223 172t179 152.5 q79 78 123 158q48 98 48 184q0 76 -34 143t-91 114.5t-129.5 73t-149.5 25.5q-98 -12 -169 -61t-109 -119q-40 -72 -46 -148q0 -171 100.5 -264.5t270.5 -99.5l5 -8q-30 -26 -65 -43t-59 -17q-106 21 -225 115t-119 301z" />
<glyph unicode="3" d="M121 4v76h475q166 8 239 111t73 261q-20 164 -100 233t-232 75h-292v55q89 88 282 273q192 185 230 225q12 13 13 23q-1 28 -21 28h-657v72h657q108 0 109 -80q0 -58 -53 -104q-78 -76 -142 -135.5t-148 -138t-146 -138.5h168q146 -4 238 -61t132.5 -143t44.5 -180 q0 -148 -56 -251.5t-147.5 -154t-195.5 -50.5h-16z" />
<glyph unicode="4" d="M43 492q7 42 25 76l548 892h92l-556 -907q-23 -39 -27 -53q7 -20 55 -21h564l4 881l76 96v-977h243v-71h-243v-408h-76v408h-533h-80q-42 0 -65.5 23t-26.5 61z" />
<glyph unicode="5" d="M135 0v84h414q91 0 172.5 42t131.5 118t50 176q-2 102 -45.5 180.5t-117.5 121.5q-74 42 -164 42h-392v672h709v-72h-629v-520h344q111 0 198.5 -57t136 -154t48.5 -213q-2 -153 -69.5 -247.5t-165.5 -133.5t-201 -39h-420z" />
<glyph unicode="6" d="M72 469q12 201 124 371l396 596h104l-428 -640q-72 -108 -92 -200q-10 -64 -10 -110q0 -142 62.5 -239t157.5 -143q96 -46 194 -48q107 10 198 66t145 147t54 200q0 108 -51 206.5t-145.5 158t-217.5 59.5q-79 -1 -167 -29l60 92q58 12 120 12q134 0 246 -66t175.5 -178 t63.5 -245q0 -97 -34 -187t-96.5 -160t-149 -112t-185.5 -44q-127 0 -228.5 41t-191.5 143q-96 130 -104 309z" />
<glyph unicode="7" d="M76 1364v72h880q108 0 109 -96q-1 -24 -17 -80l-556 -1260h-96l568 1280l17 51q0 23 -19.5 28t-77.5 5h-808z" />
<glyph unicode="8" d="M92 412q3 2 3.5 4.5t0.5 3.5q0 94 45 182t119.5 148.5t159.5 77.5q-212 80 -220 296q4 24 5 60q6 53 43.5 116.5t116.5 111.5t203 48q104 0 188 -42t132 -118t48 -176q0 -204 -209 -300q104 -28 173.5 -91.5t103.5 -140t36 -144.5q0 -179 -78 -284t-182 -146 q-102 -40 -196 -42q-116 0 -228.5 45t-187 144t-76.5 247zM184 412q2 -92 46.5 -173t135 -134t218.5 -58q120 6 204 57t126 131q42 81 42 169q0 99 -46 185t-134 138.5t-208 52.5q-118 0 -204.5 -52t-131.5 -136q-46 -84 -48 -180zM284 1128q2 -70 37 -133t101.5 -103 t157.5 -44q86 2 147.5 41t93 102t31.5 133t-32 132t-94 99t-150 37q-91 0 -156.5 -36.5t-99.5 -97.5q-34 -60 -36 -130z" />
<glyph unicode="9" d="M76 1000q5 107 50.5 193.5t118.5 146t158 90t169 30.5q20 0 56 -4q134 -14 235 -83.5t153.5 -175t52.5 -224.5q0 -48 -4 -70q0 -51 -43.5 -160.5t-97.5 -179.5l-375 -563h-101l324 488q100 140 152.5 242t52.5 218q0 114 -54 214t-150 159t-214 59q-82 0 -154.5 -35 t-125.5 -95t-83 -138t-32 -160q6 -170 120 -288q53 -56 136.5 -86t175.5 -33q107 7 148 27l-56 -88q-32 -11 -125 -19q-118 2 -229.5 61.5t-184.5 179.5t-73 294z" />
<glyph unicode=":" horiz-adv-x="567" d="M200 68q0 30 22.5 53t53.5 23q32 0 54 -22t22 -54q0 -33 -22 -54q-22 -22 -54 -22q-31 0 -53.5 22t-22.5 54zM200 721q0 29 23 52t53 23q32 0 54 -22t22 -53q0 -34 -22 -56t-54 -22q-30 0 -53 22.5t-23 55.5z" />
<glyph unicode=";" horiz-adv-x="567" d="M160 -164l84 312h104l-104 -312h-84zM196 717q8 79 80 79q36 0 56 -21.5t20 -53.5t-21 -56t-55 -24t-55 23t-25 53z" />
<glyph unicode="&#x3c;" horiz-adv-x="1229" d="M131 436v104l969 447v-90l-885 -409l885 -412v-88z" />
<glyph unicode="=" horiz-adv-x="1229" d="M131 256v84h969v-84h-969zM131 637v80h969v-80h-969z" />
<glyph unicode="&#x3e;" horiz-adv-x="1229" d="M131 -12v88l885 412l-885 409v90l969 -447v-104z" />
<glyph unicode="?" horiz-adv-x="907" d="M47 1057q0 116 55.5 208.5t149.5 143.5q92 51 200 51q112 0 208 -52.5t152 -149t56 -222.5q-13 -242 -188 -344q-84 -52 -219 -59v-369h-76v444q123 0 217 40t138 112q44 88 44 192q0 91 -43 166.5t-118 118.5t-167 43q-128 0 -222 -79t-105 -244h-82zM340 64 q3 32 24.5 54.5t55.5 25.5q38 0 59 -22t21 -54t-21 -56t-55 -24t-58 22q-23 24 -26 54z" />
<glyph unicode="@" horiz-adv-x="1640" d="M125 768q0 79 38.5 195.5t126.5 231.5t240.5 192t368.5 77q160 0 305.5 -85t232.5 -228t87 -303q0 -99 -35 -200t-95 -185t-134.5 -136.5t-151.5 -62.5q-86 0 -119 34t-49 114q-130 -136 -280 -144q-121 16 -189.5 99t-70.5 209q3 98 36.5 202t96 192t150 141t193.5 53 q162 0 228 -173l51 129h84q-41 -140 -82.5 -261t-77 -225t-55.5 -182q0 -20 -4 -32q8 -88 76 -88q48 0 106 33t109.5 94.5t87 152t41.5 203.5q0 109 -37 207t-105 174.5t-163 125t-207 58.5q-20 2 -62 2q-148 0 -268 -49t-205 -135.5t-132 -199t-56 -238.5q0 -8 -1 -22 t-1 -21q0 -118 44.5 -239t142.5 -224t243 -162q149 -40 251 -45q316 7 527 289h84q-62 -115 -160.5 -195.5t-218.5 -120.5t-248 -40q-142 0 -275.5 50t-239 149t-167 248t-61.5 341zM484 568q6 -178 136 -220q34 -10 62 -10q91 0 175 80t135.5 201t51.5 233q0 184 -124 228 q-38 8 -56 8q-98 0 -185 -81.5t-140 -204t-55 -234.5z" />
<glyph unicode="A" horiz-adv-x="1251" d="M131 0v977q2 128 53 237.5t161.5 177.5t278.5 68q120 0 213.5 -38t156 -104t94.5 -154.5t32 -190.5v-973h-88v700h-733v76h733v232q-4 108 -52 193t-138 132t-218 47q-117 0 -209.5 -43t-146 -129t-53.5 -208v-1000h-84z" />
<glyph unicode="B" d="M131 0v1016q2 113 42.5 212.5t140.5 165.5t266 66q100 0 189.5 -38t148 -114t63.5 -184q-4 -129 -42.5 -211.5t-162.5 -136.5q147 -44 214 -148t67 -228q0 -172 -100.5 -286t-328.5 -114h-329v76h273q176 0 292.5 69t116.5 251q-4 132 -86.5 231.5t-298.5 99.5 q-8 0 -22 -1t-21 -1h-254v71h250q146 0 250 73t104 255q0 98 -71.5 177t-235.5 87q-124 0 -209 -45t-127 -121t-45 -165v-1057h-84z" />
<glyph unicode="C" horiz-adv-x="1024" d="M80 744q16 263 139.5 418.5t279 214.5t289.5 59h189v-72h-176q-154 -3 -271.5 -54t-196.5 -138.5t-121 -198.5t-48 -233q0 -274 155 -457t486 -207h168v-76h-172q-137 0 -265.5 46.5t-231.5 140t-163.5 235.5t-60.5 322z" />
<glyph unicode="D" horiz-adv-x="1251" d="M131 0v1436h305q171 0 308.5 -56.5t231.5 -153.5t143 -222.5t49 -263.5q0 -168 -53.5 -306t-147 -235t-214 -148t-249.5 -51h-215v80h186q206 12 339.5 102.5t195.5 229.5q64 138 70 300q0 136 -59 284t-207 254t-394 106h-205v-1356h-84z" />
<glyph unicode="E" horiz-adv-x="1024" d="M56 760q0 138 74.5 295t247.5 269q174 112 446 112h104v-72h-113q-208 0 -358.5 -86t-229.5 -221t-87 -281h788v-72h-788q0 -193 93.5 -334.5t243 -215.5t311.5 -78h140v-76h-160q-114 0 -237 40t-231.5 129t-176 237.5t-67.5 353.5z" />
<glyph unicode="F" horiz-adv-x="907" d="M131 0v981q0 131 45 233t128.5 160t195.5 62h311v-72h-275q-62 0 -132.5 -26t-127.5 -111t-57 -246v-225h592v-76h-592v-680h-88z" />
<glyph unicode="G" horiz-adv-x="1591" d="M68 717q6 112 36 227q48 151 150 267.5t245.5 181.5t309.5 67q96 0 199.5 -28.5t196.5 -82t151 -125.5l-60 -60q-58 72 -139.5 122t-174 74t-186.5 24q-134 0 -251 -53t-204 -146.5t-135 -214.5q-48 -122 -50 -253q6 -163 76 -313q56 -112 145 -191t197 -119 q106 -40 218 -43q117 2 224.5 43t196.5 122.5t144 201.5t63 270h-619v76h707q0 -8 1 -22t1 -21q0 -140 -48 -273.5t-139 -240t-224.5 -169t-297.5 -62.5q-201 0 -369 100t-265 271t-99 370z" />
<glyph unicode="H" horiz-adv-x="1251" d="M144 0v1436h88v-648h792v648h88v-1436h-88v717h-792v-717h-88z" />
<glyph unicode="I" horiz-adv-x="456" d="M184 0v1436h88v-1436h-88z" />
<glyph unicode="J" horiz-adv-x="680" d="M-33 0v80h173q87 2 157.5 41.5t111.5 109t43 156.5v1049h88v-1045q0 -104 -44.5 -188.5t-131 -137.5t-204.5 -65h-193z" />
<glyph unicode="K" d="M131 0v1436h88v-648h252q102 0 167.5 39t112.5 112.5t96 185t136 311.5h97q-20 -42 -99.5 -221.5t-118 -252t-84.5 -121t-106 -65.5q184 -16 277 -136t103 -284v-356h-88v332q0 153 -87 269t-328 116h-33h-297v-717h-88z" />
<glyph unicode="L" horiz-adv-x="796" d="M131 404v1032h84v-1000q2 -110 42.5 -191t109 -124t153.5 -45h281v-76h-317q-94 8 -173 58t-127 138t-53 208z" />
<glyph unicode="M" horiz-adv-x="1704" d="M60 0l176 1317q10 66 30 104.5t82 38.5q76 0 104 -80q129 -406 223.5 -740t127.5 -450t49 -118q18 5 32 63l355 1201q10 26 18.5 49t20.5 40t33 26t53 9q82 0 104 -120l184 -1340h-88l-180 1336q0 17 -8 30.5t-20 13.5q-26 0 -39 -63l-365 -1249q-22 -84 -88 -84 q-80 0 -100 57l-383 1307q-15 32 -29 32q-24 0 -32 -67l-176 -1313h-84z" />
<glyph unicode="N" horiz-adv-x="1251" d="M140 0v1344q0 99 92 116q100 0 136 -76l592 -1268q6 -20 20 -37q16 -17 28 -19q20 4 20 56v1344h88v-1372q0 -65 -24 -87q-25 -21 -72 -25q-96 0 -136 92l-585 1255q-8 26 -23.5 41.5t-31.5 15.5t-16 -36v-1344h-88z" />
<glyph unicode="O" horiz-adv-x="1591" d="M68 712q0 128 47 260t140 243t231 178t310 67q160 0 295.5 -62t233 -168t150.5 -240t53 -273q-2 -186 -93 -357.5t-257 -277.5t-382 -106q-172 0 -308.5 66t-230.5 175.5t-141.5 240t-47.5 254.5zM156 712q2 -166 80 -318t223.5 -247.5t336.5 -95.5q157 2 278.5 62.5 t200.5 159.5t119 215t42 229q0 155 -74.5 307t-220 252t-345.5 104q-195 0 -340.5 -99t-222.5 -255t-77 -314z" />
<glyph unicode="P" horiz-adv-x="1024" d="M123 1000q0 167 66.5 270.5t166.5 146.5t207 43q124 0 224.5 -50t158.5 -152t58 -250q-6 -134 -59 -228t-148 -144t-225 -56h-283v76h279q96 0 175 43t126 125t47 192q0 65 -24 147.5t-102 150.5q-76 68 -222 70q-199 -10 -278 -118t-79 -258q0 -34 2 -52v-956h-88v956 q0 8 -1 22t-1 22z" />
<glyph unicode="Q" horiz-adv-x="1591" d="M66 704q0 164 59 305t162 242t234 155t271 54q192 0 334 -75.5t228 -186t127 -219.5t43 -178q2 -25 2 -74q0 -172 -61 -310.5t-160.5 -232.5t-214 -145t-222.5 -59v-292h-80v708h80v-336q140 16 271 100t213 230t82 335q0 43 -2 63q-5 86 -47 187.5t-121.5 194.5 t-199.5 153q-120 59 -272 61q-192 0 -337.5 -95t-222.5 -251q-78 -158 -78 -332q0 -8 1 -22q1 -12 1 -20q15 -154 79.5 -269t153 -188.5t173 -108t134.5 -34.5v-84q-75 12 -165 46t-190 111t-175 207q-76 132 -98 316q0 9 -1 23.5t-1 20.5z" />
<glyph unicode="R" d="M131 0v983q0 112 39.5 220.5t132.5 181.5t242 75q164 0 265.5 -61t143.5 -147q42 -84 42 -164q0 -123 -63 -224.5t-177 -136.5q136 -20 202 -113.5t66 -205.5v-408h-88v420q0 82 -43 140t-128.5 89t-209.5 31h-256v76h250q118 0 197.5 44t118 115.5t38.5 155.5 q0 85 -38.5 156t-118.5 114t-197 43q-138 -4 -236 -92t-98 -315v-977h-84z" />
<glyph unicode="S" d="M88 0v80h428q9 0 26.5 -1t27.5 -1q204 0 294 72q88 72 96 170q0 115 -50.5 186.5t-131 111.5t-236.5 86t-186 56q-93 35 -170.5 103.5t-93.5 184.5q0 35 -4 60q9 330 418 330q10 0 28 -1t29 -1h405v-76h-405q-234 0 -308.5 -70t-78.5 -186q4 -8 4 -24q4 -75 48 -126.5 t112.5 -84.5t153 -59t170.5 -50q140 -44 223.5 -95t123 -124t39.5 -183q0 -30 -2 -46q-18 -149 -128 -230.5t-355 -81.5h-49h-428z" />
<glyph unicode="T" horiz-adv-x="907" d="M4 1360v76h904v-76h-408v-1360h-88v1360h-408z" />
<glyph unicode="U" horiz-adv-x="1251" d="M131 504v932h84v-971q0 -396 418 -414q112 0 203.5 49.5t143.5 143t52 221.5v971h88v-932q0 -132 -43 -248t-150 -194t-284 -86q-156 0 -271 57t-178 175t-63 296z" />
<glyph unicode="V" horiz-adv-x="1024" d="M-37 1436h84l414 -1336q17 -51 35 -57q30 7 40 57l445 1336h84l-457 -1385q-30 -75 -112 -75q-36 0 -68 25t-43 67z" />
<glyph unicode="W" horiz-adv-x="1931" d="M131 368v1068h84v-1068q6 -104 57 -174.5t127.5 -104t159.5 -33.5q94 0 178 48t135.5 140t51.5 217v10v965h88v-975q2 -144 60 -235t142 -130q84 -40 170 -40q81 2 156.5 37t125.5 111t54 196v1036h84v-1049q0 -106 -39.5 -186t-104.5 -129.5t-138 -72.5 q-74 -23 -142 -23q-131 0 -232.5 57t-179.5 203q-142 -260 -409 -260q-117 0 -215.5 48.5t-155.5 138t-57 205.5z" />
<glyph unicode="X" horiz-adv-x="1251" d="M37 0v88q122 0 250.5 80t212.5 224.5t84 324.5q0 183 -80.5 328.5t-207 228t-259.5 86.5v84q162 -4 286.5 -80.5t200.5 -190t104 -229.5q33 124 108 236t198 186q122 74 286 78v-84q-146 -6 -273.5 -93t-203 -233t-75.5 -322q6 -180 91 -323t212 -222t249 -79v-88 q-176 8 -297 86t-191 187.5t-108 226.5q-24 -105 -94 -218t-195.5 -194.5t-297.5 -87.5z" />
<glyph unicode="Y" d="M131 1032v404h88v-404q0 -166 108.5 -259t240.5 -93q108 0 189 47t124 127.5t43 177.5v404h88v-396q-2 -146 -64.5 -245t-153.5 -147q-92 -48 -178 -48v-600h-88v600q-114 2 -205 62.5t-141.5 159.5t-50.5 210z" />
<glyph unicode="Z" horiz-adv-x="1024" d="M33 96q7 50 35 96l756 1068q32 44 32 71q0 29 -32 29h-703v76h659q172 0 172 -96q0 -42 -32 -97l-764 -1079q-1 -2 -8 -14t-11 -22t-6 -20q10 -28 49 -28h784v-80h-839q-38 0 -63.5 27t-28.5 69z" />
<glyph unicode="[" horiz-adv-x="567" d="M188 -381v1817h277v-76h-201v-1659h201v-82h-277z" />
<glyph unicode="\" horiz-adv-x="567" d="M-135 1460h84l759 -1484h-84z" />
<glyph unicode="]" horiz-adv-x="567" d="M108 -303h199v1659h-199v80h277v-1817h-277v78z" />
<glyph unicode="^" horiz-adv-x="1229" d="M125 563l443 873h96l440 -873h-96l-392 785l-397 -785h-94z" />
<glyph unicode="_" horiz-adv-x="1024" d="M0 -152h1024v-104h-1024v104z" />
<glyph unicode="`" horiz-adv-x="456" d="M-4 1380h104l244 -284h-76z" />
<glyph unicode="a" d="M70 500q0 31 2 45q12 118 60 203.5t116 139.5t142 78.5t138 24.5q168 0 278.5 -78.5t160 -193.5t49.5 -223v-496h-80v500q-6 140 -68 235t-153 140t-183 45q-96 -4 -168 -48.5t-118 -108t-68 -124.5t-22 -99q-2 -16 -2 -44q0 -124 47.5 -219.5t128.5 -151.5 q81 -55 178 -69q212 0 340 140v-96q-146 -116 -303 -116q-144 0 -252 70t-165.5 188t-57.5 258z" />
<glyph unicode="b" d="M125 488v948h80v-948q0 -126 55.5 -225t145.5 -153t186 -54q86 0 174 49.5t149 140t72 202.5q2 14 2 44q0 105 -50.5 202.5t-139 159.5t-195.5 66q-93 0 -171.5 -39t-135.5 -105v92q72 64 148 94q75 29 183 29q120 -4 222.5 -71.5t162.5 -181.5t60 -248q0 -8 -1 -21 t-1 -21q-14 -191 -104.5 -295.5t-195.5 -138.5t-183 -34q-140 6 -246 78t-161.5 187t-55.5 243z" />
<glyph unicode="c" horiz-adv-x="796" d="M80 492q4 178 81 291t197 163t258 50q72 0 105 -5v-79q-53 6 -103 6q-157 0 -260 -58t-150.5 -155t-47.5 -213q10 -126 59 -218t149 -143t254 -51q64 0 99 4v-84q-10 0 -41.5 -2t-51.5 -2q-127 0 -246.5 40t-205.5 150q-86 112 -96 306z" />
<glyph unicode="d" d="M72 475q0 139 66 258t176.5 188.5t234.5 69.5q168 -1 299 -119v-100q-126 144 -293 144q-104 0 -197.5 -62t-149.5 -166t-56 -223q0 -98 53.5 -193.5t144 -155.5t195.5 -60q86 0 173.5 43t149.5 138t72 242v957h80v-940q-8 -218 -106 -333t-204 -149q-108 -34 -174 -34 q-140 2 -246 76t-162 189t-56 230z" />
<glyph unicode="e" d="M76 488q4 134 70.5 250t180 184.5t249.5 68.5q144 0 264 -67.5t176 -167.5l-696 -472l-48 64l625 424q-50 68 -134.5 106t-182.5 38q-92 0 -177 -38t-148 -117.5t-87 -197.5q-2 -12 -4 -38q-2 -25 -4 -41q2 -88 36 -172t106 -150t182 -98q68 -8 92 -13q122 2 218.5 57 t153 150t64.5 211h80q-6 -150 -77 -260.5t-184 -167.5t-239 -57q-141 0 -258.5 67t-185.5 182t-72 255z" />
<glyph unicode="f" horiz-adv-x="567" d="M125 0v1136q0 84 41.5 153t119.5 108t185 39h133v-72h-160q-116 -9 -177.5 -79.5t-61.5 -192.5v-119h399v-74h-399v-899h-80z" />
<glyph unicode="g" d="M72 516q12 122 55 213.5t107.5 151t143.5 89.5q78 30 162 30q92 0 178.5 -34.5t153 -100.5t105.5 -163.5t39 -217.5v-476q0 -162 -67 -268.5t-180 -155.5t-249 -49h-6q-142 0 -266 49l24 72q118 -47 256 -47q84 0 158 22.5t131 72.5t90 134t33 203v447q0 130 -57 226 t-149 147t-194 51q-94 0 -180 -46t-142 -140t-66 -230q0 -113 51.5 -214.5t140 -162.5t192.5 -63q170 6 312 153v-105q-134 -120 -312 -120q-90 0 -173.5 36t-150 107t-103.5 170t-37 219z" />
<glyph unicode="h" horiz-adv-x="1024" d="M125 0v1436h80v-600q46 74 130.5 114.5t184.5 40.5q97 0 181.5 -41.5t139.5 -127.5t62 -214v-608h-75v576q-2 112 -45 188.5t-112 114t-151 37.5q-122 0 -215 -81t-100 -219v-616h-80z" />
<glyph unicode="i" horiz-adv-x="456" d="M168 1243q0 30 17 47.5t43 17.5q65 0 65 -63q0 -26 -19.5 -41.5t-45.5 -19.5q-24 4 -42 19.5t-18 39.5zM192 0v973h76v-973h-76z" />
<glyph unicode="j" horiz-adv-x="456" d="M-104 -391q142 0 214 63.5t78 167.5v1133h80v-1145q-2 -96 -53 -162t-135 -98.5t-184 -32.5v74zM164 1243q8 65 64 65q61 0 61 -63q0 -24 -18 -43q-17 -18 -43 -18t-43 18t-21 41z" />
<glyph unicode="k" horiz-adv-x="907" d="M125 0v1436h80v-868h163q44 0 81 25t76.5 74t88.5 123t121 183h101q-66 -92 -134 -199t-98 -146q-30 -38 -72 -65v-4q127 -8 198 -87.5t71 -219.5v-252h-76v256q0 98 -65.5 165t-167.5 71h-287v-492h-80z" />
<glyph unicode="l" horiz-adv-x="456" d="M188 0v1436h80v-1436h-80z" />
<glyph unicode="m" horiz-adv-x="1480" d="M121 0v676q5 103 53 174.5t123 106t155 34.5q100 0 181 -48.5t107 -137.5q27 90 107.5 140.5t180.5 50.5q84 0 158 -37.5t122 -112t52 -182.5v-664h-76v668q-6 80 -42 136t-92 84t-118 28q-64 0 -121 -30t-93 -87t-38 -135v-664h-76v656q0 80 -35.5 140t-94 92t-126.5 32 q-62 0 -117.5 -29.5t-92 -90t-42.5 -144.5v-656h-75z" />
<glyph unicode="n" horiz-adv-x="1024" d="M125 0v604q0 72 35 160.5t118.5 155t221.5 71.5q110 0 201 -46.5t145.5 -136.5t56.5 -212v-596h-79v584q0 72 -32 150t-102.5 132t-177.5 54h-4q-82 0 -151.5 -44t-110.5 -118t-41 -158v-600h-80z" />
<glyph unicode="o" d="M76 488q0 80 31 168t93 164.5t156 123.5t216 47q110 0 201 -42.5t155 -113.5t98.5 -161t34.5 -186q0 -114 -55.5 -232t-167.5 -196q-110 -78 -266 -80q-152 0 -264.5 75.5t-171.5 192.5q-58 118 -60 240zM160 488q0 -102 48 -203t141 -166.5t223 -67.5q131 0 223.5 68.5 t139 170.5t46.5 198q-2 108 -53.5 207t-144.5 161t-211 64q-118 0 -213 -61t-147 -161t-52 -210z" />
<glyph unicode="p" d="M125 -471v1007q4 97 55.5 201.5t156 177.5t251.5 76q111 0 201.5 -41.5t153 -112.5t95.5 -160t33 -181q0 -138 -62.5 -256.5t-171.5 -187t-241 -68.5q-172 0 -299 120v92q119 -140 319 -140q103 10 188 69t134 159t49 224q0 64 -25.5 136t-76.5 134.5t-129 102t-176 39.5 q-108 -6 -191 -62t-130 -142q-47 -88 -54 -180v-1007h-80z" />
<glyph unicode="q" d="M70 488q0 95 31 184t88.5 157.5t138 111.5t176.5 50q178 0 294.5 -80.5t169 -192.5t52.5 -210v-12v-957h-80v953q0 116 -53 214t-150 156t-221 58q-84 -8 -153 -50.5t-116 -109t-71 -147.5t-24 -161q8 -104 63 -194t139 -144t170 -58q102 0 178 36q76 34 146 104v-92 q-74 -64 -153.5 -94t-174.5 -30q-100 4 -198 57t-168 157q-68 104 -82 250q-2 14 -2 44z" />
<glyph unicode="r" horiz-adv-x="567" d="M125 0v973h80v-189q100 188 315 189h64v-76q-38 4 -56 4q-88 0 -159 -44.5t-114.5 -128.5t-49.5 -200v-528h-80z" />
<glyph unicode="s" horiz-adv-x="907" d="M76 744q0 36 20 89t75 96.5t149 43.5h444v-74h-432q-86 -2 -127 -47.5t-41 -111.5q2 -90 78.5 -126t241 -74t254.5 -94t98 -178q0 -101 -40.5 -161.5t-103 -83.5t-139.5 -23h-13h-460v76h456q105 0 158.5 46t57.5 122q0 75 -51 119.5t-109 62.5t-184 48q-126 28 -185 54 q-147 64 -147 216z" />
<glyph unicode="t" horiz-adv-x="567" d="M125 284v955h80v-266h344v-74h-344v-647q10 -104 66.5 -140t152.5 -40q47 4 125 4v-76h-158q-118 3 -192 74.5t-74 209.5z" />
<glyph unicode="u" horiz-adv-x="1024" d="M125 356v617h80v-605q5 -94 50.5 -164t116 -108t148.5 -40q119 3 206 83q88 79 98 225v609h79v-609q-3 -121 -59 -207t-144 -129.5t-188 -43.5q-98 0 -186 42.5t-143 127t-58 202.5z" />
<glyph unicode="v" horiz-adv-x="907" d="M-4 973h88l348 -877q12 -30 24 -36q14 4 28 36l344 877h92l-367 -930q-19 -63 -97 -63q-32 0 -57 14t-35 39z" />
<glyph unicode="w" horiz-adv-x="1480" d="M121 303v670h75v-666q10 -120 82 -186t170 -70q100 4 175 71.5t77 184.5v666h80v-674q4 -76 39.5 -131.5t91 -84.5t117.5 -32q102 4 176 72.5t80 192.5v657h76v-657q0 -91 -39.5 -168.5t-113 -122.5t-171.5 -45q-226 0 -292 192h-4q-64 -192 -292 -192q-83 0 -155.5 36 t-119.5 109t-52 178z" />
<glyph unicode="x" horiz-adv-x="907" d="M37 899v74q135 0 250 -76t169 -209q60 131 169 208t251 77v-74q-111 -3 -197.5 -64.5t-132.5 -156t-46 -190.5q2 -104 48 -197.5t131 -152t197 -62.5v-80q-95 8 -172 39t-140.5 92t-107.5 157q-65 -138 -166.5 -206.5t-248.5 -81.5v84q101 0 185 56t135 148.5t55 190.5 q0 100 -45 197t-132 159.5t-202 67.5z" />
<glyph unicode="y" horiz-adv-x="1024" d="M125 348v625h75v-588q0 -100 46 -174.5t117.5 -114.5t144.5 -40q78 0 149 38t117 110t50 168v601h79v-601q-7 -174 -104.5 -274t-243.5 -114v-424h-84v424q-87 8 -162.5 51t-125 123t-58.5 190z" />
<glyph unicode="z" horiz-adv-x="796" d="M43 76q7 73 73 147l512 621q8 14 9 24q-1 28 -29 29h-520v76h559q44 0 64 -24t20 -60q-1 -51 -31 -93l-508 -612q-58 -64 -61 -88q6 -16 45 -16h580v-80h-627q-31 0 -57 20.5t-29 55.5z" />
<glyph unicode="{" horiz-adv-x="567" d="M135 500v76q113 0 113 317v323q0 94 15.5 148t45.5 75t76 21h80v-76h-78q-32 0 -47 -42q-16 -40 -16 -162v-320q0 -138 -36 -214q-36 -78 -69 -106v-4q29 -20 67 -100t38 -217v-319q0 -118 15 -158.5t48 -40.5h78v-82h-80q-46 0 -76 21.5t-45.5 76.5t-15.5 152v319 q0 136 -26 224t-87 88z" />
<glyph unicode="|" horiz-adv-x="456" d="M188 0v1436h80v-1436h-80z" />
<glyph unicode="}" horiz-adv-x="567" d="M108 -312h80q32 0 46 42t14 162v321q0 138 37 215.5t71 103.5v4q-32 20 -70 100.5t-38 215.5v320q0 120 -14 162t-46 42h-80v76h80q71 0 103.5 -52t32.5 -196v-315q0 -317 112 -317v-76q-112 0 -112 -316v-324q0 -140 -32 -192q-34 -51 -104 -51h-80v75z" />
<glyph unicode="~" horiz-adv-x="1229" d="M129 420q108 172 258 172q57 0 111 -16.5t128 -49t121 -48.5q47 -18 101 -22q61 4 104 38q42 34 92 106l56 -45q-90 -172 -264 -178q-52 4 -97 19.5t-117.5 49.5t-126 52t-108.5 18q-123 0 -203 -144z" />
<glyph unicode="&#xa1;" horiz-adv-x="456" d="M160 932q4 32 26 52t54 20q36 0 56 -23t20 -53q0 -31 -20 -54q-20 -22 -56 -22t-58 24.5t-22 55.5zM200 -465v1177h80v-1177h-80z" />
<glyph unicode="&#xa2;" d="M121 764q4 12 4 32q4 140 99 240.5t280 103.5v296h80v-296h168v-75h-248q-70 0 -135 -27.5t-109 -87.5t-47 -154q2 -127 67 -217.5t224 -90.5h248v-76h-168v-324h-80v324q-114 0 -200 45.5t-133 125.5t-50 181z" />
<glyph unicode="&#xa3;" d="M-20 4v76q142 0 212 69t76 179v393h-137v84h137q0 81 -4 111q2 138 19 224t46 137t79 99q96 84 244 84q90 0 220 -36l-28 -72q-96 28 -188 28q-120 0 -191 -63q-71 -60 -94 -160t-27 -260q4 -28 4 -92h252v-84h-252v-385q0 -86 -33 -152t-87 -100h413q105 3 170 35 t109 94q58 76 57 256v84h80v-109q1 -182 -57 -268q-114 -172 -312 -172h-708z" />
<glyph unicode="&#xa4;" d="M60 721q6 171 124 323l-112 111l59 65l113 -112q146 121 324 121q190 0 331 -121l113 112l59 -61l-111 -115q120 -130 120 -319q0 -98 -34 -187q-34 -90 -86 -147l111 -111l-59 -61l-113 113q-147 -122 -327 -127q-174 7 -328 127l-113 -113l-59 61l112 111 q-120 152 -124 330zM144 752q0 -100 41.5 -204t138 -177t248.5 -78q108 2 190 44.5t134 109t78 142t26 146.5q-8 116 -69 210t-156 147.5t-203 56.5q-110 0 -207 -58.5t-156 -150.5t-65 -188z" />
<glyph unicode="&#xa5;" d="M28 1356v80q154 -8 271 -90t183 -191q68 -109 86 -203h4q26 100 79 189t125 153.5t160 102t180 39.5v-80q-114 -2 -217 -73t-172 -179t-90 -215h415v-84h-432q-8 -41 -8 -137h440v-80h-440v-588h-80v588h-444v80h444v53q0 35 -8 84h-436v84h416q-20 102 -71 189.5 t-118 148.5t-142 95t-145 34z" />
<glyph unicode="&#xa6;" horiz-adv-x="303" d="M196 0v1420h97v-1420h-97z" />
<glyph unicode="&#xa7;" horiz-adv-x="1024" d="M148 696q3 88 62 150q60 62 175 70l2 4q-104 45 -153.5 115.5t-53.5 152.5q8 38 8 51q6 62 50 114.5t114 81.5t148 29q102 0 195 -47.5t165 -148.5l-68 -44q-47 84 -127 128q-79 44 -169 44q-97 0 -167 -55t-73 -149q4 -89 75 -147.5t212.5 -126t219 -119t105.5 -131.5 q16 -52 16 -92q0 -88 -57 -155t-131 -77v-4q70 -51 111 -105.5t41 -138.5q-2 -79 -45.5 -137t-116 -88.5t-158.5 -30.5q-97 0 -186.5 38.5t-153.5 113.5l56 55q42 -56 127.5 -91.5t173.5 -35.5q100 0 161.5 49.5t61.5 155.5q-7 64 -58.5 115t-112.5 84.5t-169 84.5t-152 79 q-56 32 -91 90t-37 118zM219 696q2 -94 105.5 -158.5t247.5 -113.5q23 -10 65 -16q66 0 119 49t53 119q1 72 -57 141q-70 64 -163 99.5t-181 35.5q-170 0 -189 -156z" />
<glyph unicode="&#xa8;" horiz-adv-x="456" d="M-4 1216q0 23 19 45.5t49 22.5q31 0 51 -18t20 -46q1 -76 -71 -75q-28 0 -48 20.5t-20 50.5zM320 1216q4 26 22.5 47t48.5 21t50 -19t20 -45q0 -30 -19 -52.5t-51 -22.5t-51.5 21.5t-19.5 49.5z" />
<glyph unicode="&#xa9;" horiz-adv-x="1640" d="M92 735q8 140 60 269.5t145 232t225 162t293 61.5q171 0 309.5 -64.5t233 -171.5t144.5 -239.5t50 -263.5q0 -202 -98.5 -372.5t-268 -270.5t-370.5 -102q-154 0 -287.5 63.5t-231.5 172.5t-151 245.5t-53 277.5zM184 740q0 -125 40 -245.5t118 -218t196.5 -157 t270.5 -63.5q140 0 261.5 55t207.5 149t133 214t49 243q0 164 -81 318.5t-227 251.5t-328 97q-185 -2 -331.5 -96t-227.5 -243t-81 -305zM416 708q0 119 48 221.5t137.5 164.5t207.5 70q146 0 251.5 -73t135.5 -211h-84q-67 208 -301 208q-90 -4 -159.5 -54.5t-106.5 -136.5 q-37 -87 -37 -197q2 -97 49 -178t122 -127.5t157 -46.5q222 0 276 220h84q-86 -292 -352 -292q-106 0 -201 45.5t-157 143t-70 243.5z" />
<glyph unicode="&#xaa;" horiz-adv-x="684" d="M16 1192q17 134 109 201q93 67 187 67q111 0 183.5 -45t105 -113t32.5 -138v-296h-70v300q-7 116 -82 174.5t-165 58.5q-79 -2 -132 -41.5t-76.5 -89.5t-23.5 -82q0 -124 59 -192q59 -66 156 -80q153 0 221 108v-80q-64 -86 -200 -92q-8 4 -27 4q-142 16 -209.5 111 t-67.5 225z" />
<glyph unicode="&#xab;" horiz-adv-x="796" d="M100 488l244 321h96l-244 -321l244 -320h-96zM348 488l248 321h100l-248 -321l244 -320h-96z" />
<glyph unicode="&#xac;" horiz-adv-x="1229" d="M131 633v84h969v-461h-84v377h-885z" />
<glyph unicode="&#xad;" horiz-adv-x="680" d="M148 448v80h392v-80h-392z" />
<glyph unicode="&#xae;" horiz-adv-x="1640" d="M92 748q8 218 120 380.5t276 247t321 84.5q193 -2 336 -75t232 -188t130 -240t41 -232q-4 -170 -66 -311t-165 -238.5t-232 -148.5t-266 -51q-148 3 -279.5 58.5t-233 158.5t-158 245t-56.5 310zM180 748q0 -194 83.5 -354t231 -251.5t329.5 -91.5q124 2 237.5 53.5 t204 143.5t142.5 215t52 264q-4 179 -88 329t-229.5 238t-327.5 90q-168 0 -310.5 -86t-229.5 -232t-95 -318zM540 276v869h320q162 0 220 -61q56 -62 60 -176q0 -110 -60 -156.5t-156 -63.5l264 -412h-113l-247 412h-208v-412h-80zM620 760h224q130 0 169 45t39 115 q0 71 -49 109t-139 38h-244v-307z" />
<glyph unicode="&#xb1;" horiz-adv-x="1229" d="M131 0v84h969v-84h-969zM131 532v80h441v361h84v-361h444v-80h-444v-360h-84v360h-441z" />
<glyph unicode="&#xb2;" horiz-adv-x="680" d="M20 1188q0 127 79 199.5t221 72.5q130 0 217 -67t87 -209q0 -82 -73 -165t-198 -168.5t-191 -129.5q-66 -43 -66 -61q0 -12 12 -13h516v-63h-544q-56 0 -56 63q0 40 51 80.5t192 138.5t211.5 170t70.5 148q1 212 -229 212q-224 0 -224 -208q0 -72 59 -122t169 -50v-4 q-50 -60 -72 -60q-40 0 -95 28t-96 82t-41 126z" />
<glyph unicode="&#xb3;" horiz-adv-x="680" d="M47 584v63h301q90 0 143.5 49.5t53.5 131.5q0 91 -56.5 143.5t-168.5 52.5h-168v68l296 260q16 16 17 20q0 8 -4 8h-405v64h423q74 0 74 -43q0 -39 -33 -65l-284 -248h100q134 0 209 -68.5t75 -175.5q0 -128 -80 -194t-224 -66h-269z" />
<glyph unicode="&#xb4;" horiz-adv-x="456" d="M112 1096l244 280h105l-273 -280h-76z" />
<glyph unicode="&#xb5;" horiz-adv-x="1024" d="M125 -469v1442h75v-586q0 -96 43 -173.5t114 -120t155 -42.5q86 0 157 42.5t113 120t42 173.5v586h75v-592q0 -118 -51.5 -209.5t-139.5 -141.5t-196 -50q-94 0 -175 40t-132 111h-5v-600h-75z" />
<glyph unicode="&#xb6;" horiz-adv-x="1229" d="M192 1065q0 62 45 151t129 154.5t197 65.5h401v-1620h-75v1544h-248v-1544h-82v827q-72 2 -157.5 47t-147.5 140.5t-62 234.5z" />
<glyph unicode="&#xb7;" horiz-adv-x="1024" d="M152 725q0 97 52 179t136 129t172 47t171.5 -47t134 -129t50.5 -179q0 -100 -45 -184.5t-126 -132.5t-181 -48t-184 48.5t-132 132t-48 184.5z" />
<glyph unicode="&#xb8;" horiz-adv-x="456" d="M8 -352l25 53q71 -37 147 -37q54 0 99 26q45 24 45 74q0 32 -28 61t-81 31q-57 -8 -99 -28l-32 24l116 156h68l-100 -116l8 -4q20 12 68 20q66 -3 113 -42q47 -40 47 -98q0 -57 -32.5 -91.5t-82 -49t-105.5 -14.5q-94 1 -176 35z" />
<glyph unicode="&#xb9;" horiz-adv-x="680" d="M172 1380l12 64h197v-860h-74v796h-135z" />
<glyph unicode="&#xba;" horiz-adv-x="684" d="M20 1155q0 77 40 146t113 112t163 47q91 0 165.5 -41t116.5 -109q44 -68 46 -142q0 -55 -20 -109.5t-60 -100t-99 -73t-133 -29.5q-152 0 -242 91t-90 208zM88 1159q0 -74 38 -130.5t98 -86.5t124 -30q64 2 121 32.5t92 86.5t35 128q-3 112 -76.5 175.5t-175.5 66.5 q-63 0 -121.5 -30.5t-95.5 -85.5t-39 -126z" />
<glyph unicode="&#xbb;" horiz-adv-x="796" d="M108 168l244 320l-244 317h97l247 -317l-247 -320h-97zM360 168l248 320l-248 317h96l248 -317l-248 -320h-96z" />
<glyph unicode="&#xbc;" horiz-adv-x="1708" d="M131 1384l13 64h204v-868h-68v804h-149zM332 -24l948 1484h80l-952 -1484h-76zM1000 268q2 20 12 42t23 43t26 43l315 480h76l-364 -552q-6 -6 -13 -25q8 -10 25 -10h360v520l64 63q2 -1 4 -1.5t4 -2.5v-579h139v-70h-139v-219h-68v219h-389q-67 -1 -75 49z" />
<glyph unicode="&#xbd;" horiz-adv-x="1708" d="M172 1380l12 64h197v-860h-74v796h-135zM284 -24l945 1484h79l-948 -1484h-76zM1065 604q0 128 78.5 200t224.5 72q82 0 150 -27t108.5 -90t40.5 -159q0 -82 -72.5 -164.5t-140 -130t-191 -130.5t-123.5 -99q0 -12 15 -12h516v-64h-543q-58 0 -57 64q0 40 50.5 80.5 t192 138t212 170t70.5 147.5q0 209 -228 209t-228 -205q0 -73 59 -122.5t169 -49.5l4 -4q-50 -60 -72 -60q-42 0 -98 28.5t-96.5 82t-40.5 125.5z" />
<glyph unicode="&#xbe;" horiz-adv-x="1708" d="M47 584v63h301q90 0 143.5 49.5t53.5 131.5q0 91 -56.5 143.5t-168.5 52.5h-168v68l296 260q20 12 21 20q0 8 -8 8h-405v64h423q74 0 74 -52q0 -30 -33 -56l-284 -248h100q134 0 209 -68.5t75 -175.5q0 -128 -80 -194t-224 -66h-269zM400 -24l948 1484h80l-953 -1484h-75 zM1000 272q2 20 12 42t23 43t26 43l315 480h76l-364 -552q-6 -6 -13 -25q8 -10 25 -10h360v518l64 65q2 -1 4 -1.5t4 -2.5v-579h139v-70h-139v-219h-68v219h-389q-67 -1 -75 49z" />
<glyph unicode="&#xbf;" horiz-adv-x="907" d="M45 -72q0 125 44.5 219t136.5 149.5t226 63.5v371h76v-442q-212 0 -306 -97.5t-97 -238.5q2 -14 3.5 -41t2.5 -41q26 -128 120.5 -193t213.5 -65q77 0 150 37.5t120 111.5t49 178h80q-6 -146 -69 -238t-151.5 -130t-178.5 -41q-108 0 -198.5 43t-149.5 124 q-59 82 -70 190q0 6 -1 20q-1 12 -1 20zM412 924q0 31 19 54t57 26q37 0 58.5 -24t21.5 -52q0 -31 -23 -55.5t-57 -24.5q-68 6 -76 76z" />
<glyph unicode="&#xc0;" horiz-adv-x="1251" d="M131 0v977q2 128 53 237.5t161.5 177.5t278.5 68q120 0 213.5 -38t156 -104t94.5 -154.5t32 -190.5v-973h-88v700h-733v76h733v232q-4 108 -52 193t-138 132t-218 47q-117 0 -209.5 -43t-146 -129t-53.5 -208v-1000h-84zM396 1804h104l244 -284h-76z" />
<glyph unicode="&#xc1;" horiz-adv-x="1251" d="M131 0v977q2 128 53 237.5t161.5 177.5t278.5 68q120 0 213.5 -38t156 -104t94.5 -154.5t32 -190.5v-973h-88v700h-733v76h733v232q-4 108 -52 193t-138 132t-218 47q-117 0 -209.5 -43t-146 -129t-53.5 -208v-1000h-84zM512 1520l244 280h104l-272 -280h-76z" />
<glyph unicode="&#xc2;" horiz-adv-x="1251" d="M131 0v977q2 128 53 237.5t161.5 177.5t278.5 68q120 0 213.5 -38t156 -104t94.5 -154.5t32 -190.5v-973h-88v700h-733v76h733v232q-4 108 -52 193t-138 132t-218 47q-117 0 -209.5 -43t-146 -129t-53.5 -208v-1000h-84zM352 1520l220 284h108l223 -284h-84l-195 231 l-192 -231h-80z" />
<glyph unicode="&#xc3;" horiz-adv-x="1251" d="M131 0v977q2 128 53 237.5t161.5 177.5t278.5 68q120 0 213.5 -38t156 -104t94.5 -154.5t32 -190.5v-973h-88v700h-733v76h733v232q-4 108 -52 193t-138 132t-218 47q-117 0 -209.5 -43t-146 -129t-53.5 -208v-1000h-84zM328 1552q6 54 48 115q44 61 116 61q36 0 69 -14 t75 -39t71 -39t61 -16q86 8 96 112h64q-31 -174 -156 -180q-81 7 -176 68q-62 41 -112 41q-40 0 -64.5 -32t-32.5 -77h-59z" />
<glyph unicode="&#xc4;" horiz-adv-x="1251" d="M131 0v977q2 128 53 237.5t161.5 177.5t278.5 68q120 0 213.5 -38t156 -104t94.5 -154.5t32 -190.5v-973h-88v700h-733v76h733v232q-4 108 -52 193t-138 132t-218 47q-117 0 -209.5 -43t-146 -129t-53.5 -208v-1000h-84zM396 1640q0 23 18.5 45.5t50.5 22.5q30 0 51 -18 q20 -20 20 -46q0 -32 -17.5 -53.5t-53.5 -21.5q-29 0 -49 20.5t-20 50.5zM721 1640q4 26 21.5 47t49.5 21q28 0 48 -20t20 -44q0 -30 -18 -52.5t-50 -22.5q-33 0 -52 21q-19 20 -19 50z" />
<glyph unicode="&#xc5;" horiz-adv-x="1251" d="M131 0v977q2 128 53 237.5t161.5 177.5t278.5 68q120 0 213.5 -38t156 -104t94.5 -154.5t32 -190.5v-973h-88v700h-733v76h733v232q-4 108 -52 193t-138 132t-218 47q-117 0 -209.5 -43t-146 -129t-53.5 -208v-1000h-84zM428 1712q0 49 25 97t70 78t105 30 q80 0 136 -54.5t60 -126.5q0 -92 -54 -154t-142 -62q-85 0 -141 57t-59 135zM488 1712q3 -58 41.5 -96t98.5 -39q52 0 96 41.5t44 109.5q-3 52 -42 90q-40 38 -98 42q-52 0 -96 -38t-44 -110z" />
<glyph unicode="&#xc6;" horiz-adv-x="1931" d="M108 0v964q12 255 141 370.5t314 125.5q180 0 291.5 -68t159.5 -159t57 -172q82 172 253.5 275.5t424.5 103.5q73 0 111 -4v-72q-26 4 -101 4q-147 0 -294.5 -56t-256 -188.5t-128.5 -347.5h780v-72h-780q10 -242 126.5 -384t270 -196t299.5 -56q78 8 84 8v-72 q-74 -4 -105 -4q-136 0 -241.5 27.5t-185 76t-137.5 112.5q-57 62 -107 144v-360l-93 4v700h-715v72h715v207q-5 124 -58.5 215.5t-147 138.5t-213.5 47q-104 -2 -190 -55t-136 -148t-50 -217v-964h-88z" />
<glyph unicode="&#xc7;" horiz-adv-x="1024" d="M88 744q8 161 71.5 290.5t160 218.5t205.5 136t206 47h246v-72h-233q-97 0 -227.5 -64t-230.5 -204t-110 -352q0 -168 53.5 -293.5t141.5 -206.5t188.5 -121.5t200.5 -46.5h217v-72q-40 0 -100.5 -2t-100.5 -2l-96 -108l4 -4q60 17 80 20q71 -3 113.5 -48.5t42.5 -103.5 q-3 -69 -66 -106q-64 -37 -154 -37q-92 0 -180 39l25 49q65 -37 147 -37q62 0 101 22.5t43 65.5q0 45 -30 71.5t-85 28.5q-69 -10 -93 -24l-32 28l112 148q-134 18 -275 90.5t-243 233t-102 416.5z" />
<glyph unicode="&#xc8;" horiz-adv-x="1024" d="M56 760q0 138 74.5 295t247.5 269q174 112 446 112h104v-72h-113q-208 0 -358.5 -86t-229.5 -221t-87 -281h788v-72h-788q0 -193 93.5 -334.5t243 -215.5t311.5 -78h140v-76h-160q-114 0 -237 40t-231.5 129t-176 237.5t-67.5 353.5zM444 1804h105l243 -284h-75z" />
<glyph unicode="&#xc9;" horiz-adv-x="1024" d="M56 760q0 138 74.5 295t247.5 269q174 112 446 112h104v-72h-113q-208 0 -358.5 -86t-229.5 -221t-87 -281h788v-72h-788q0 -193 93.5 -334.5t243 -215.5t311.5 -78h140v-76h-160q-114 0 -237 40t-231.5 129t-176 237.5t-67.5 353.5zM559 1520l246 280h103l-271 -280h-78 z" />
<glyph unicode="&#xca;" horiz-adv-x="1024" d="M56 760q0 138 74.5 295t247.5 269q174 112 446 112h104v-72h-113q-208 0 -358.5 -86t-229.5 -221t-87 -281h788v-72h-788q0 -193 93.5 -334.5t243 -215.5t311.5 -78h140v-76h-160q-114 0 -237 40t-231.5 129t-176 237.5t-67.5 353.5zM400 1520l220 284h107l225 -284h-84 l-196 231l-193 -231h-79z" />
<glyph unicode="&#xcb;" horiz-adv-x="1024" d="M56 760q0 138 74.5 295t247.5 269q174 112 446 112h104v-72h-113q-208 0 -358.5 -86t-229.5 -221t-87 -281h788v-72h-788q0 -193 93.5 -334.5t243 -215.5t311.5 -78h140v-76h-160q-114 0 -237 40t-231.5 129t-176 237.5t-67.5 353.5zM444 1640q0 23 19 45.5t49 22.5 q31 0 51.5 -18t20.5 -46q0 -32 -18 -53.5t-54 -21.5q-28 0 -48 20.5t-20 50.5zM768 1640q4 26 23 47t49 21t49 -19t19 -45q0 -31 -18 -53t-50 -22t-52 21.5t-20 49.5z" />
<glyph unicode="&#xcc;" horiz-adv-x="456" d="M-4 1804h104l244 -284h-76zM184 0v1436h88v-1436h-88z" />
<glyph unicode="&#xcd;" horiz-adv-x="456" d="M112 1520l244 280h105l-273 -280h-76zM184 0v1436h88v-1436h-88z" />
<glyph unicode="&#xce;" horiz-adv-x="456" d="M-47 1520l219 284h108l224 -284h-84l-197 231l-190 -231h-80zM184 0v1436h88v-1436h-88z" />
<glyph unicode="&#xcf;" horiz-adv-x="456" d="M-4 1640q0 23 19 45.5t49 22.5q31 0 51 -18t20 -46q1 -76 -71 -75q-28 0 -48 20.5t-20 50.5zM184 0v1436h88v-1436h-88zM320 1640q4 26 22.5 47t48.5 21t50 -19t20 -45q0 -30 -19 -52.5t-51 -22.5t-51.5 21.5t-19.5 49.5z" />
<glyph unicode="&#xd0;" horiz-adv-x="1251" d="M-20 717v71h151v648h313q142 0 274 -52t234 -147.5t161 -228t59 -287.5q0 -160 -52 -293.5t-144.5 -229.5t-216 -147t-263.5 -51h-203v80h195q181 0 316.5 88.5t207.5 236t72 316.5q0 132 -50 248.5t-141 204.5t-214 137t-267 49h-193v-572h502v-71h-502v-717h-88v717 h-151z" />
<glyph unicode="&#xd1;" horiz-adv-x="1251" d="M140 0v1344q0 99 92 116q100 0 136 -76l592 -1268q6 -20 20 -37q16 -17 28 -19q20 4 20 56v1344h88v-1372q0 -65 -24 -87q-25 -21 -72 -25q-96 0 -136 92l-585 1255q-8 26 -23.5 41.5t-31.5 15.5t-16 -36v-1344h-88zM356 1552q4 52 47 114t117 62q36 0 69 -14t75 -39 t71 -39t61 -16q86 6 97 112h63q-32 -174 -155 -180q-81 6 -177 68q-64 41 -112 41q-40 0 -64 -32t-32 -77h-60z" />
<glyph unicode="&#xd2;" horiz-adv-x="1591" d="M68 712q0 128 47 260t140 243t231 178t310 67q160 0 295.5 -62t233 -168t150.5 -240t53 -273q-2 -186 -93 -357.5t-257 -277.5t-382 -106q-172 0 -308.5 66t-230.5 175.5t-141.5 240t-47.5 254.5zM156 712q2 -166 80 -318t223.5 -247.5t336.5 -95.5q157 2 278.5 62.5 t200.5 159.5t119 215t42 229q0 155 -74.5 307t-220 252t-345.5 104q-195 0 -340.5 -99t-222.5 -255t-77 -314zM563 1804h105l244 -284h-76z" />
<glyph unicode="&#xd3;" horiz-adv-x="1591" d="M68 712q0 128 47 260t140 243t231 178t310 67q160 0 295.5 -62t233 -168t150.5 -240t53 -273q-2 -186 -93 -357.5t-257 -277.5t-382 -106q-172 0 -308.5 66t-230.5 175.5t-141.5 240t-47.5 254.5zM156 712q2 -166 80 -318t223.5 -247.5t336.5 -95.5q157 2 278.5 62.5 t200.5 159.5t119 215t42 229q0 155 -74.5 307t-220 252t-345.5 104q-195 0 -340.5 -99t-222.5 -255t-77 -314zM680 1520l244 280h104l-272 -280h-76z" />
<glyph unicode="&#xd4;" horiz-adv-x="1591" d="M68 712q0 128 47 260t140 243t231 178t310 67q160 0 295.5 -62t233 -168t150.5 -240t53 -273q-2 -186 -93 -357.5t-257 -277.5t-382 -106q-172 0 -308.5 66t-230.5 175.5t-141.5 240t-47.5 254.5zM156 712q2 -166 80 -318t223.5 -247.5t336.5 -95.5q157 2 278.5 62.5 t200.5 159.5t119 215t42 229q0 155 -74.5 307t-220 252t-345.5 104q-195 0 -340.5 -99t-222.5 -255t-77 -314zM520 1520l220 284h108l223 -284h-84l-195 231l-192 -231h-80z" />
<glyph unicode="&#xd5;" horiz-adv-x="1591" d="M68 712q0 128 47 260t140 243t231 178t310 67q160 0 295.5 -62t233 -168t150.5 -240t53 -273q-2 -186 -93 -357.5t-257 -277.5t-382 -106q-172 0 -308.5 66t-230.5 175.5t-141.5 240t-47.5 254.5zM156 712q2 -166 80 -318t223.5 -247.5t336.5 -95.5q157 2 278.5 62.5 t200.5 159.5t119 215t42 229q0 155 -74.5 307t-220 252t-345.5 104q-195 0 -340.5 -99t-222.5 -255t-77 -314zM496 1552q4 52 48 114t116 62q36 0 69 -14t75 -39t71 -39t61 -16q86 8 96 112h64q-32 -174 -156 -180q-81 7 -176 68q-62 41 -112 41q-41 0 -65.5 -32.5 t-31.5 -76.5h-59z" />
<glyph unicode="&#xd6;" horiz-adv-x="1591" d="M68 712q0 128 47 260t140 243t231 178t310 67q160 0 295.5 -62t233 -168t150.5 -240t53 -273q-2 -186 -93 -357.5t-257 -277.5t-382 -106q-172 0 -308.5 66t-230.5 175.5t-141.5 240t-47.5 254.5zM156 712q2 -166 80 -318t223.5 -247.5t336.5 -95.5q157 2 278.5 62.5 t200.5 159.5t119 215t42 229q0 155 -74.5 307t-220 252t-345.5 104q-195 0 -340.5 -99t-222.5 -255t-77 -314zM563 1640q0 22 19 45t51 23q29 0 50 -18q21 -20 21 -46q0 -32 -17.5 -53.5t-53.5 -21.5q-28 0 -49 20.5t-21 50.5zM889 1640q4 26 21.5 47t49.5 21q28 0 48 -20 t20 -44q0 -30 -18 -52.5t-50 -22.5q-33 0 -52 21q-19 20 -19 50z" />
<glyph unicode="&#xd8;" horiz-adv-x="1591" d="M-4 -24l252 256q-68 88 -107 167.5t-55 159t-16 174.5q0 8 1 27q1 18 1 28q6 142 67 265t164 214t233 140t269 49q146 0 259 -47q112 -47 228 -145l203 196h105l-252 -252q64 -71 104 -154.5t58 -169.5t18 -167q0 -138 -55 -271.5t-154 -238.5t-227 -167t-268 -64 q-148 0 -270.5 40t-254.5 160l-195 -200h-108zM156 712q8 -240 151 -419l926 911q-198 180 -432 180q-163 0 -305 -80t-232 -219t-104 -301q0 -46 -4 -72zM364 236q170 -180 451 -180q127 0 241.5 55t200 151t132.5 215t47 244q0 246 -148 428z" />
<glyph unicode="&#xd9;" horiz-adv-x="1251" d="M131 504v932h84v-971q0 -396 418 -414q112 0 203.5 49.5t143.5 143t52 221.5v971h88v-932q0 -132 -43 -248t-150 -194t-284 -86q-156 0 -271 57t-178 175t-63 296zM396 1800h104l244 -284h-76z" />
<glyph unicode="&#xda;" horiz-adv-x="1251" d="M131 504v932h84v-971q0 -396 418 -414q112 0 203.5 49.5t143.5 143t52 221.5v971h88v-932q0 -132 -43 -248t-150 -194t-284 -86q-156 0 -271 57t-178 175t-63 296zM512 1520l244 280h104l-272 -280h-76z" />
<glyph unicode="&#xdb;" horiz-adv-x="1251" d="M131 504v932h84v-971q0 -396 418 -414q112 0 203.5 49.5t143.5 143t52 221.5v971h88v-932q0 -132 -43 -248t-150 -194t-284 -86q-156 0 -271 57t-178 175t-63 296zM352 1520l220 284h108l223 -284h-84l-195 231l-192 -231h-80z" />
<glyph unicode="&#xdc;" horiz-adv-x="1251" d="M131 504v932h84v-971q0 -396 418 -414q112 0 203.5 49.5t143.5 143t52 221.5v971h88v-932q0 -132 -43 -248t-150 -194t-284 -86q-156 0 -271 57t-178 175t-63 296zM396 1640q0 23 18.5 45.5t50.5 22.5q30 0 51 -18q20 -20 20 -46q0 -32 -17.5 -53.5t-53.5 -21.5 q-29 0 -49 20.5t-20 50.5zM721 1640q4 26 21.5 47t49.5 21q28 0 48 -20t20 -44q0 -30 -18 -52.5t-50 -22.5q-33 0 -52 21q-19 20 -19 50z" />
<glyph unicode="&#xdd;" d="M131 1032v404h88v-404q0 -166 108.5 -259t240.5 -93q108 0 189 47t124 127.5t43 177.5v404h88v-396q-2 -146 -64.5 -245t-153.5 -147q-92 -48 -178 -48v-600h-88v600q-114 2 -205 62.5t-141.5 159.5t-50.5 210zM452 1520l244 280h105l-273 -280h-76z" />
<glyph unicode="&#xde;" horiz-adv-x="1024" d="M125 0v1048v388h88v-384h2q56 71 143.5 113.5t200.5 42.5q128 0 228.5 -52t158.5 -151.5t58 -236.5q0 -138 -58 -239t-158 -153t-225 -52h-274v80h274q156 0 254.5 98t98.5 266q0 108 -45.5 191t-125 126t-182.5 43q-100 0 -179.5 -45t-125 -122t-45.5 -169v-792h-88z " />
<glyph unicode="&#xdf;" d="M12 805v84h64h59v231q0 68 40.5 145t120.5 132t192 63q98 0 180 -28t131 -87t49 -145q0 -24 -16 -100q-14 -53 -49.5 -91.5t-73 -60.5t-85.5 -43q-46 -21 -56 -29q-12 -10 -13 -12q9 -8 13 -8q58 -24 176.5 -76t211 -149t92.5 -250q0 -105 -45 -191t-151 -138t-276 -52 h-273v80h297q120 0 202 39t122 108t40 160q-10 112 -65 191.5t-195 133.5q-94 38 -132 55t-70.5 43t-32.5 58q6 42 80.5 85.5t137.5 85.5t77 116q4 25 4 37q0 93 -73 142.5t-187 49.5q-76 0 -143 -40t-106.5 -107t-39.5 -141v-1096h-84v805h-123z" />
<glyph unicode="&#xe0;" d="M70 500q0 31 2 45q12 118 60 203.5t116 139.5t142 78.5t138 24.5q168 0 278.5 -78.5t160 -193.5t49.5 -223v-496h-80v500q-6 140 -68 235t-153 140t-183 45q-96 -4 -168 -48.5t-118 -108t-68 -124.5t-22 -99q-2 -16 -2 -44q0 -124 47.5 -219.5t128.5 -151.5 q81 -55 178 -69q212 0 340 140v-96q-146 -116 -303 -116q-144 0 -252 70t-165.5 188t-57.5 258zM336 1384h104l244 -284h-76z" />
<glyph unicode="&#xe1;" d="M70 500q0 31 2 45q12 118 60 203.5t116 139.5t142 78.5t138 24.5q168 0 278.5 -78.5t160 -193.5t49.5 -223v-496h-80v500q-6 140 -68 235t-153 140t-183 45q-96 -4 -168 -48.5t-118 -108t-68 -124.5t-22 -99q-2 -16 -2 -44q0 -124 47.5 -219.5t128.5 -151.5 q81 -55 178 -69q212 0 340 140v-96q-146 -116 -303 -116q-144 0 -252 70t-165.5 188t-57.5 258zM452 1100l244 280h105l-273 -280h-76z" />
<glyph unicode="&#xe2;" d="M70 500q0 31 2 45q12 118 60 203.5t116 139.5t142 78.5t138 24.5q168 0 278.5 -78.5t160 -193.5t49.5 -223v-496h-80v500q-6 140 -68 235t-153 140t-183 45q-96 -4 -168 -48.5t-118 -108t-68 -124.5t-22 -99q-2 -16 -2 -44q0 -124 47.5 -219.5t128.5 -151.5 q81 -55 178 -69q212 0 340 140v-96q-146 -116 -303 -116q-144 0 -252 70t-165.5 188t-57.5 258zM293 1096l219 284h108l224 -284h-84l-197 231l-191 -231h-79z" />
<glyph unicode="&#xe3;" d="M70 500q0 31 2 45q12 118 60 203.5t116 139.5t142 78.5t138 24.5q168 0 278.5 -78.5t160 -193.5t49.5 -223v-496h-80v500q-6 140 -68 235t-153 140t-183 45q-96 -4 -168 -48.5t-118 -108t-68 -124.5t-22 -99q-2 -16 -2 -44q0 -124 47.5 -219.5t128.5 -151.5 q81 -55 178 -69q212 0 340 140v-96q-146 -116 -303 -116q-144 0 -252 70t-165.5 188t-57.5 258zM268 1128q4 52 47 114t117 62q36 0 69 -14t75 -39t71 -39t61 -16q85 8 97 112h63q-32 -174 -156 -180q-80 6 -176 68q-64 41 -112 41q-40 0 -64 -32t-32 -77h-60z" />
<glyph unicode="&#xe4;" d="M70 500q0 31 2 45q12 118 60 203.5t116 139.5t142 78.5t138 24.5q168 0 278.5 -78.5t160 -193.5t49.5 -223v-496h-80v500q-6 140 -68 235t-153 140t-183 45q-96 -4 -168 -48.5t-118 -108t-68 -124.5t-22 -99q-2 -16 -2 -44q0 -124 47.5 -219.5t128.5 -151.5 q81 -55 178 -69q212 0 340 140v-96q-146 -116 -303 -116q-144 0 -252 70t-165.5 188t-57.5 258zM336 1216q0 23 19 45.5t49 22.5q31 0 51 -18t20 -46q1 -76 -71 -75q-28 0 -48 20.5t-20 50.5zM660 1216q4 26 22.5 47t48.5 21t50 -19t20 -45q0 -30 -19 -52.5t-51 -22.5 t-51.5 21.5t-19.5 49.5z" />
<glyph unicode="&#xe5;" d="M70 500q0 31 2 45q12 118 60 203.5t116 139.5t142 78.5t138 24.5q168 0 278.5 -78.5t160 -193.5t49.5 -223v-496h-80v500q-6 140 -68 235t-153 140t-183 45q-96 -4 -168 -48.5t-118 -108t-68 -124.5t-22 -99q-2 -16 -2 -44q0 -124 47.5 -219.5t128.5 -151.5 q81 -55 178 -69q212 0 340 140v-96q-146 -116 -303 -116q-144 0 -252 70t-165.5 188t-57.5 258zM368 1288q0 49 25 96.5t71 78t104 30.5q82 0 137.5 -54.5t58.5 -125.5q0 -60 -24 -109.5t-69 -78.5t-103 -29q-84 0 -140 57t-60 135zM428 1288q3 -58 40.5 -96t99.5 -39 q54 0 97 41.5t43 109.5q-3 52 -42.5 90t-97.5 42q-51 0 -95.5 -38.5t-44.5 -109.5z" />
<glyph unicode="&#xe6;" horiz-adv-x="1931" d="M68 260q4 136 181.5 257.5t565.5 207.5q-31 82 -119 137q-88 54 -212 54q-150 0 -308 -80l-45 63q61 37 157 64.5t196 27.5q96 0 181.5 -28t154 -93.5t104.5 -169.5q38 79 90 140.5t141 104.5t217 46q150 0 268 -80t168 -186l-751 -321l-29 67l652 285q-113 158 -312 164 q-124 -2 -218 -64t-144 -160q-52 -96 -54 -200q2 -11 4 -33.5t4 -34.5q26 -144 125 -254t295 -118q90 2 161 32.5t119.5 79t78 105.5t41.5 114l80 -10q-32 -145 -115 -234.5t-181 -126t-188 -36.5q-116 4 -197 34t-141 92q-60 60 -118 166q-34 -100 -107 -167.5t-167 -100 t-194 -32.5q-92 0 -178 33t-144 99q-56 65 -62 156zM152 260q6 -59 63 -125q91 -82 229 -88q120 2 218.5 58t154 153.5t55.5 216.5q0 96 -28 172q-114 -13 -280 -68t-288 -138.5t-124 -180.5z" />
<glyph unicode="&#xe7;" horiz-adv-x="796" d="M80 475q0 136 55 253.5t163 188.5t257 74h166v-79h-158q-126 -4 -217.5 -62.5t-138.5 -155t-47 -210.5q7 -166 110.5 -278t284.5 -122h166v-80h-166l-90 -112l4 -4q23 12 76 20q67 -3 111 -46.5t44 -97.5q-6 -78 -68 -113.5t-153 -35.5q-99 0 -180 37l25 49 q81 -37 147 -37t105.5 26t39.5 70q0 41 -30 65.5t-82 26.5q-46 -6 -96 -24l-31 28l115 152q-380 70 -412 467z" />
<glyph unicode="&#xe8;" d="M76 488q4 134 70.5 250t180 184.5t249.5 68.5q144 0 264 -67.5t176 -167.5l-696 -472l-48 64l625 424q-50 68 -134.5 106t-182.5 38q-92 0 -177 -38t-148 -117.5t-87 -197.5q-2 -12 -4 -38q-2 -25 -4 -41q2 -88 36 -172t106 -150t182 -98q68 -8 92 -13q122 2 218.5 57 t153 150t64.5 211h80q-6 -150 -77 -260.5t-184 -167.5t-239 -57q-141 0 -258.5 67t-185.5 182t-72 255zM336 1380h104l244 -284h-76z" />
<glyph unicode="&#xe9;" d="M76 488q4 134 70.5 250t180 184.5t249.5 68.5q144 0 264 -67.5t176 -167.5l-696 -472l-48 64l625 424q-50 68 -134.5 106t-182.5 38q-92 0 -177 -38t-148 -117.5t-87 -197.5q-2 -12 -4 -38q-2 -25 -4 -41q2 -88 36 -172t106 -150t182 -98q68 -8 92 -13q122 2 218.5 57 t153 150t64.5 211h80q-6 -150 -77 -260.5t-184 -167.5t-239 -57q-141 0 -258.5 67t-185.5 182t-72 255zM452 1096l244 280h105l-273 -280h-76z" />
<glyph unicode="&#xea;" d="M76 488q4 134 70.5 250t180 184.5t249.5 68.5q144 0 264 -67.5t176 -167.5l-696 -472l-48 64l625 424q-50 68 -134.5 106t-182.5 38q-92 0 -177 -38t-148 -117.5t-87 -197.5q-2 -12 -4 -38q-2 -25 -4 -41q2 -88 36 -172t106 -150t182 -98q68 -8 92 -13q122 2 218.5 57 t153 150t64.5 211h80q-6 -150 -77 -260.5t-184 -167.5t-239 -57q-141 0 -258.5 67t-185.5 182t-72 255zM293 1096l219 284h108l224 -284h-84l-197 231l-191 -231h-79z" />
<glyph unicode="&#xeb;" d="M76 488q4 134 70.5 250t180 184.5t249.5 68.5q144 0 264 -67.5t176 -167.5l-696 -472l-48 64l625 424q-50 68 -134.5 106t-182.5 38q-92 0 -177 -38t-148 -117.5t-87 -197.5q-2 -12 -4 -38q-2 -25 -4 -41q2 -88 36 -172t106 -150t182 -98q68 -8 92 -13q122 2 218.5 57 t153 150t64.5 211h80q-6 -150 -77 -260.5t-184 -167.5t-239 -57q-141 0 -258.5 67t-185.5 182t-72 255zM336 1216q0 23 19 45.5t49 22.5q31 0 51 -18t20 -46q1 -76 -71 -75q-28 0 -48 20.5t-20 50.5zM660 1216q4 26 22.5 47t48.5 21t50 -19t20 -45q0 -30 -19 -52.5 t-51 -22.5t-51.5 21.5t-19.5 49.5z" />
<glyph unicode="&#xec;" horiz-adv-x="456" d="M-8 1384h104l244 -284h-76zM192 0v973h76v-973h-76z" />
<glyph unicode="&#xed;" horiz-adv-x="456" d="M108 1100l244 280h104l-272 -280h-76zM192 0v973h76v-973h-76z" />
<glyph unicode="&#xee;" horiz-adv-x="456" d="M-51 1092l219 284h108l224 -284h-84l-197 231l-191 -231h-79zM192 0v973h76v-973h-76z" />
<glyph unicode="&#xef;" horiz-adv-x="456" d="M-8 1212q0 23 19 45.5t49 22.5q31 0 51 -18t20 -46q1 -76 -71 -76q-26 0 -47 21t-21 51zM192 0v973h76v-973h-76zM316 1212q4 26 22.5 47t48.5 21t49 -20q20 -20 20 -44q0 -30 -18.5 -53t-50.5 -23q-31 0 -51 22t-20 50z" />
<glyph unicode="&#xf0;" d="M80 484q0 136 64.5 253t177 185.5t246.5 68.5q83 0 149 -18l88 -129q-95 76 -237 76q-88 0 -163.5 -35t-130.5 -97t-84.5 -142t-29.5 -167q0 -112 53 -209.5t146 -155.5t209 -58q118 0 212 59t147.5 164.5t53.5 236.5q0 105 -34 205.5t-94 189.5t-139 167 q-80 78 -174 146l-220 -159l-40 51l204 152q-110 74 -244 141l44 51q128 -56 265 -147l199 147l40 -51l-184 -137q98 -70 180 -151t146 -174.5t99.5 -198t35.5 -216.5q0 -166 -64.5 -291.5t-178.5 -192.5q-112 -68 -254 -68q-134 0 -247 66.5t-177 182t-64 255.5z" />
<glyph unicode="&#xf1;" horiz-adv-x="1024" d="M125 0v604q0 72 35 160.5t118.5 155t221.5 71.5q110 0 201 -46.5t145.5 -136.5t56.5 -212v-596h-79v584q0 72 -32 150t-102.5 132t-177.5 54h-4q-82 0 -151.5 -44t-110.5 -118t-41 -158v-600h-80zM215 1124q4 52 48 114t118 62q36 0 67.5 -13.5t74 -39t72 -39.5t61.5 -16 q86 6 96 112h63q-27 -174 -155 -180q-78 6 -176 68q-62 41 -112 41q-80 -1 -96 -109h-61z" />
<glyph unicode="&#xf2;" d="M76 488q0 80 31 168t93 164.5t156 123.5t216 47q110 0 201 -42.5t155 -113.5t98.5 -161t34.5 -186q0 -114 -55.5 -232t-167.5 -196q-110 -78 -266 -80q-152 0 -264.5 75.5t-171.5 192.5q-58 118 -60 240zM160 488q0 -102 48 -203t141 -166.5t223 -67.5q131 0 223.5 68.5 t139 170.5t46.5 198q-2 108 -53.5 207t-144.5 161t-211 64q-118 0 -213 -61t-147 -161t-52 -210zM340 1376h104l244 -284h-76z" />
<glyph unicode="&#xf3;" d="M76 488q0 80 31 168t93 164.5t156 123.5t216 47q110 0 201 -42.5t155 -113.5t98.5 -161t34.5 -186q0 -114 -55.5 -232t-167.5 -196q-110 -78 -266 -80q-152 0 -264.5 75.5t-171.5 192.5q-58 118 -60 240zM160 488q0 -102 48 -203t141 -166.5t223 -67.5q131 0 223.5 68.5 t139 170.5t46.5 198q-2 108 -53.5 207t-144.5 161t-211 64q-118 0 -213 -61t-147 -161t-52 -210zM448 1092l244 280h104l-272 -280h-76z" />
<glyph unicode="&#xf4;" d="M76 488q0 80 31 168t93 164.5t156 123.5t216 47q110 0 201 -42.5t155 -113.5t98.5 -161t34.5 -186q0 -114 -55.5 -232t-167.5 -196q-110 -78 -266 -80q-152 0 -264.5 75.5t-171.5 192.5q-58 118 -60 240zM160 488q0 -102 48 -203t141 -166.5t223 -67.5q131 0 223.5 68.5 t139 170.5t46.5 198q-2 108 -53.5 207t-144.5 161t-211 64q-118 0 -213 -61t-147 -161t-52 -210zM293 1092l219 284h108l224 -284h-84l-197 231l-191 -231h-79z" />
<glyph unicode="&#xf5;" d="M76 488q0 80 31 168t93 164.5t156 123.5t216 47q110 0 201 -42.5t155 -113.5t98.5 -161t34.5 -186q0 -114 -55.5 -232t-167.5 -196q-110 -78 -266 -80q-152 0 -264.5 75.5t-171.5 192.5q-58 118 -60 240zM160 488q0 -102 48 -203t141 -166.5t223 -67.5q131 0 223.5 68.5 t139 170.5t46.5 198q-2 108 -53.5 207t-144.5 161t-211 64q-118 0 -213 -61t-147 -161t-52 -210zM268 1124q4 52 47 114t117 62q36 0 69 -14t75 -39t71 -39t61 -16q86 8 97 112h63q-32 -174 -156 -180q-80 6 -176 68q-64 41 -112 41q-40 0 -64 -32t-32 -77h-60z" />
<glyph unicode="&#xf6;" d="M76 488q0 80 31 168t93 164.5t156 123.5t216 47q110 0 201 -42.5t155 -113.5t98.5 -161t34.5 -186q0 -114 -55.5 -232t-167.5 -196q-110 -78 -266 -80q-152 0 -264.5 75.5t-171.5 192.5q-58 118 -60 240zM160 488q0 -102 48 -203t141 -166.5t223 -67.5q131 0 223.5 68.5 t139 170.5t46.5 198q-2 108 -53.5 207t-144.5 161t-211 64q-118 0 -213 -61t-147 -161t-52 -210zM336 1212q0 23 19 45.5t49 22.5q31 0 51 -18t20 -46q1 -76 -71 -76q-26 0 -47 21t-21 51zM660 1212q4 26 22.5 47t48.5 21t50 -20t20 -44q0 -30 -19.5 -53t-50.5 -23t-51 22 t-20 50z" />
<glyph unicode="&#xf8;" d="M4 -41l196 201q-122 150 -128 332q4 127 69.5 242.5t176 188.5t237.5 73q109 0 197 -41t141 -87l143 148h100l-196 -201q117 -119 117 -323q0 -102 -36 -194t-102.5 -163t-156.5 -111t-194 -40q-188 0 -320 124l-144 -149h-100zM160 479q8 -149 96 -264l580 596 q-118 105 -268 105q-114 0 -206.5 -61t-145 -162t-56.5 -214zM303 164q115 -106 265 -113q114 4 209 63t149.5 156.5t54.5 208.5q0 160 -92 281z" />
<glyph unicode="&#xf9;" horiz-adv-x="1024" d="M125 356v617h80v-605q5 -94 50.5 -164t116 -108t148.5 -40q119 3 206 83q88 79 98 225v609h79v-609q-3 -121 -59 -207t-144 -129.5t-188 -43.5q-98 0 -186 42.5t-143 127t-58 202.5zM289 1376h102l246 -284h-78z" />
<glyph unicode="&#xfa;" horiz-adv-x="1024" d="M125 356v617h80v-605q5 -94 50.5 -164t116 -108t148.5 -40q119 3 206 83q88 79 98 225v609h79v-609q-3 -121 -59 -207t-144 -129.5t-188 -43.5q-98 0 -186 42.5t-143 127t-58 202.5zM391 1092l246 280h103l-271 -280h-78z" />
<glyph unicode="&#xfb;" horiz-adv-x="1024" d="M125 356v617h80v-605q5 -94 50.5 -164t116 -108t148.5 -40q119 3 206 83q88 79 98 225v609h79v-609q-3 -121 -59 -207t-144 -129.5t-188 -43.5q-98 0 -186 42.5t-143 127t-58 202.5zM236 1092l220 284h107l225 -284h-84l-196 231l-192 -231h-80z" />
<glyph unicode="&#xfc;" horiz-adv-x="1024" d="M125 356v617h80v-605q5 -94 50.5 -164t116 -108t148.5 -40q119 3 206 83q88 79 98 225v609h79v-609q-3 -121 -59 -207t-144 -129.5t-188 -43.5q-98 0 -186 42.5t-143 127t-58 202.5zM280 1212q0 24 18 46t50 22q30 0 51 -18q21 -20 21 -46q0 -31 -18 -53.5t-54 -22.5 q-27 0 -47.5 21t-20.5 51zM604 1212q4 26 23 47t49 21t49 -20t19 -44q0 -30 -18 -53t-50 -23q-31 0 -51.5 22t-20.5 50z" />
<glyph unicode="&#xfd;" horiz-adv-x="1024" d="M125 348v625h75v-588q0 -100 46 -174.5t117.5 -114.5t144.5 -40q78 0 149 38t117 110t50 168v601h79v-601q-7 -174 -104.5 -274t-243.5 -114v-424h-84v424q-87 8 -162.5 51t-125 123t-58.5 190zM396 1092l245 280h103l-273 -280h-75z" />
<glyph unicode="&#xfe;" d="M125 -465v1045v856h80v-664h4q60 102 163.5 160.5t227.5 58.5q132 0 239 -64.5t169.5 -180.5t62.5 -258t-62.5 -259t-170.5 -183t-238 -66q-99 0 -166.5 34t-136.5 90v92q46 -48 89.5 -78t96.5 -46t117 -16q72 0 142 31.5t126 90.5t87.5 138.5t31.5 171.5q0 120 -55 219 t-144.5 156t-187.5 57q-113 0 -203.5 -60t-141 -160t-50.5 -212v-953h-80z" />
<glyph unicode="&#xff;" horiz-adv-x="567" d="M125 360v623h75v-587q0 -98 46 -173t117.5 -115t144.5 -40q78 0 149 38.5t117 111.5q46 72 50 167v598h79v-598q-7 -174 -104.5 -274.5t-243.5 -114.5v-424h-84v424q-87 8 -162.5 51.5t-124.5 123.5q-50 79 -59 189zM280 1229q0 24 18 45.5t50 21.5q30 0 51 -18.5 t21 -44.5q0 -32 -18 -55t-54 -23q-27 0 -47.5 22t-20.5 52zM604 1229q4 26 23 46.5t49 20.5t49 -19t19 -44q0 -31 -18 -54.5t-50 -23.5q-30 0 -51 22.5t-21 51.5z" />
<glyph unicode="&#x152;" horiz-adv-x="2048" d="M28 712q4 172 61.5 310.5t155 236t216.5 147.5t243 50q148 -2 272.5 -57.5t217 -161t146.5 -256.5q100 266 293 355.5t391 95.5v-76q-162 -2 -285 -61t-200 -150t-115 -191.5t-40 -181.5h640v-72h-640q8 -188 90 -324t224 -213t326 -91v-72q-8 0 -21 -1t-21 -1 q-194 0 -368.5 103t-273.5 343q-52 -152 -151 -259t-225 -160t-256 -53q-128 0 -249 53t-219.5 153t-155 237t-56.5 297zM112 727q0 -128 40.5 -249.5t117 -217t188 -152.5t250.5 -61q176 0 308.5 97t202 251.5t69.5 316.5q0 122 -41 241t-117 215t-183 154q-107 56 -235 58 q-128 0 -238.5 -54t-192 -148.5t-125.5 -211.5t-44 -239z" />
<glyph unicode="&#x153;" horiz-adv-x="2048" d="M80 479q2 197 87 310t192.5 156t195.5 46q68 0 134.5 -16.5t129 -52.5t115 -94t86.5 -136q60 142 178 217t258 82q106 0 206 -33t180.5 -104.5t121.5 -181.5l-772 -332l-37 72l697 296q-42 96 -155 154t-241 58q-118 -15 -207 -73.5t-136.5 -151.5t-47.5 -211 q0 -113 58.5 -212.5t159 -157.5t220.5 -58q147 6 257 97t144 234l80 -15q-24 -94 -74.5 -168t-118 -123.5t-141.5 -74.5q-74 -24 -147 -26q-150 0 -281.5 78t-197.5 226q-61 -140 -181.5 -222t-279.5 -82q-118 2 -229.5 62t-182.5 173.5t-71 263.5zM160 484q0 -101 51 -199 t143.5 -161.5t208.5 -67.5q122 0 218 62t148 158.5t52 194.5q0 86 -31.5 167.5t-88.5 144.5t-135.5 100t-170.5 37q-124 -4 -212.5 -68t-134.5 -162t-48 -206z" />
<glyph unicode="&#x2c6;" horiz-adv-x="456" d="M-47 1096l219 284h108l224 -284h-84l-197 231l-190 -231h-80z" />
<glyph unicode="&#x2dc;" horiz-adv-x="456" d="M-72 1128q4 52 47 114t117 62q36 0 69 -14t75 -39t71 -39t61 -16q85 8 97 112h63q-32 -174 -156 -180q-80 6 -176 68q-64 41 -112 41q-40 0 -64 -32t-32 -77h-60z" />
<glyph unicode="&#x2000;" horiz-adv-x="958" />
<glyph unicode="&#x2001;" horiz-adv-x="1917" />
<glyph unicode="&#x2002;" horiz-adv-x="958" />
<glyph unicode="&#x2003;" horiz-adv-x="1917" />
<glyph unicode="&#x2004;" horiz-adv-x="639" />
<glyph unicode="&#x2005;" horiz-adv-x="479" />
<glyph unicode="&#x2006;" horiz-adv-x="319" />
<glyph unicode="&#x2007;" horiz-adv-x="319" />
<glyph unicode="&#x2008;" horiz-adv-x="239" />
<glyph unicode="&#x2009;" horiz-adv-x="383" />
<glyph unicode="&#x200a;" horiz-adv-x="106" />
<glyph unicode="&#x2010;" horiz-adv-x="680" d="M148 448v80h392v-80h-392z" />
<glyph unicode="&#x2011;" horiz-adv-x="680" d="M148 448v80h392v-80h-392z" />
<glyph unicode="&#x2012;" horiz-adv-x="680" d="M148 448v80h392v-80h-392z" />
<glyph unicode="&#x2013;" horiz-adv-x="1024" d="M0 448v76h1024v-76h-1024z" />
<glyph unicode="&#x2014;" horiz-adv-x="2048" d="M0 448v76h2044h4v-76h-2044h-4z" />
<glyph unicode="&#x2018;" horiz-adv-x="456" d="M156 1436h84l59 -316h-76z" />
<glyph unicode="&#x2019;" horiz-adv-x="456" d="M156 1120l59 316h84l-67 -316h-76z" />
<glyph unicode="&#x201c;" horiz-adv-x="680" d="M135 1436h84l61 -316h-75zM400 1436h88l57 -316h-74z" />
<glyph unicode="&#x201d;" horiz-adv-x="680" d="M135 1120l61 316h84l-67 -316h-78zM404 1120l57 316h88l-70 -316h-75z" />
<glyph unicode="&#x201e;" horiz-adv-x="680" d="M135 -168l61 316h84l-67 -316h-78zM404 -168l57 316h88l-70 -316h-75z" />
<glyph unicode="&#x2022;" horiz-adv-x="567" d="M205 504q7 74 75 80q76 0 76 -76q0 -31 -21 -53.5t-55 -22.5q-32 0 -52 21.5t-23 50.5z" />
<glyph unicode="&#x2026;" horiz-adv-x="2048" d="M264 68q0 30 23 53t57 23q31 0 53.5 -23t22.5 -53q0 -32 -23 -56t-53 -24q-33 0 -56.5 24t-23.5 56zM948 80q0 30 22.5 53t53.5 23q32 0 56 -22t24 -54q0 -33 -24 -56.5t-56 -23.5q-30 0 -53 24t-23 56zM1628 80q0 30 24 53t56 23q31 0 53.5 -22t22.5 -54t-23 -56 t-53 -24q-32 0 -56 24t-24 56z" />
<glyph unicode="&#x202f;" horiz-adv-x="383" />
<glyph unicode="&#x2039;" horiz-adv-x="567" d="M104 488l248 317h96l-248 -317l248 -320h-96z" />
<glyph unicode="&#x203a;" horiz-adv-x="567" d="M125 168l243 320l-243 317h94l246 -317l-246 -320h-94z" />
<glyph unicode="&#x205f;" horiz-adv-x="479" />
<glyph unicode="&#x2122;" horiz-adv-x="2027" d="M176 1356v80h656v-80h-292v-764h-75v764h-289zM996 592v844h132l296 -709l292 709h140v-844h-76v752h-8l-328 -752h-35l-334 752h-4v-752h-75z" />
<glyph unicode="&#xe000;" horiz-adv-x="972" d="M0 0v972h972v-972h-972z" />
</font>
</defs>
</svg>
